<svg width="246" height="31" viewBox="0 0 246 31" fill="none" xmlns="http://www.w3.org/2000/svg">
<rect width="246" height="31" fill="white"/>
<path d="M9 19V13H6V19H9ZM12 10V13H15V19H12V22H6V28H0V10H12ZM24 7H18V4H24V7ZM18 25V10H24V25H18ZM27 25V19H30V16H27V10H33V16H36V10H42V16H39V19H42V25H36V19H33V25H27ZM51 16H54V13H51V16ZM60 13V19H51V22H60V25H48V22H45V13H48V10H57V13H60ZM63 4H69V25H63V4ZM78 22H81V19H78V22ZM87 13V25H75V22H72V19H75V16H81V13H75V10H84V13H87ZM90 25V10H96V13H99V10H102V16H96V25H90ZM114 22V25H108V22H105V4H111V10H114V13H111V22H114Z" fill="black"/>
<path d="M126 22V25H120V22H117V4H123V10H126V13H123V22H126ZM138 22V13H135V22H138ZM132 25V22H129V13H132V10H141V13H144V22H141V25H132ZM153 19H156V13H153V19ZM150 25H156V22H150V19H147V13H150V10H162V25H159V28H150V25ZM171 16H174V13H171V16ZM180 13V19H171V22H180V25H168V22H165V13H168V10H177V13H180ZM192 22V25H186V22H183V4H189V10H192V13H189V22H192ZM204 25V13H201V25H195V4H201V10H207V13H210V25H204ZM219 16H222V13H219V16ZM228 13V19H219V22H228V25H216V22H213V13H216V10H225V13H228ZM231 25V10H237V13H240V10H243V16H237V25H231Z" fill="#FA3030"/>
</svg>
