<svg width="166" height="60" viewBox="0 0 166 60" fill="none" xmlns="http://www.w3.org/2000/svg">
<path d="M60.704 23H61.969V20.206H63.74C65.346 20.206 66.402 19.238 66.402 17.753C66.402 16.257 65.346 15.3 63.74 15.3H60.704V23ZM63.641 16.4C64.543 16.4 65.115 16.917 65.115 17.753C65.115 18.578 64.532 19.106 63.63 19.106H61.969V16.4H63.641Z" fill="#878C92"/>
<path d="M69.6473 23.066C71.3633 23.066 72.5183 21.911 72.5183 20.184C72.5183 18.468 71.3633 17.302 69.6473 17.302C67.9313 17.302 66.7763 18.468 66.7763 20.184C66.7763 21.911 67.9313 23.066 69.6473 23.066ZM69.6473 22.054C68.6463 22.054 67.9973 21.273 67.9973 20.184C67.9973 19.095 68.6463 18.314 69.6473 18.314C70.6483 18.314 71.3083 19.095 71.3083 20.184C71.3083 21.273 70.6483 22.054 69.6473 22.054Z" fill="#878C92"/>
<path d="M74.5782 23H75.8652L77.0972 19.172L78.2852 23H79.5612L81.4312 17.368H80.2212L78.8902 21.68L77.6582 17.368H76.5692L75.2822 21.68L73.9952 17.368H72.7412L74.5782 23Z" fill="#878C92"/>
<path d="M84.5363 23.066C85.9333 23.066 86.8793 22.219 87.0773 21.108H85.8893C85.7243 21.735 85.1963 22.098 84.4703 22.098C83.5353 22.098 82.9303 21.471 82.8973 20.514V20.437H87.1433C87.1653 20.283 87.1763 20.129 87.1763 19.986C87.1433 18.336 86.0543 17.302 84.4263 17.302C82.7653 17.302 81.6543 18.457 81.6543 20.195C81.6543 21.922 82.7653 23.066 84.5363 23.066ZM82.9413 19.568C83.0293 18.765 83.6783 18.259 84.4373 18.259C85.2623 18.259 85.8453 18.732 85.9443 19.568H82.9413Z" fill="#878C92"/>
<path d="M90.9857 17.368C90.0617 17.368 89.6107 17.742 89.3247 18.215L89.1927 17.368H88.1367V23H89.3247V20.173C89.3247 19.304 89.6657 18.479 90.7217 18.479H91.2497V17.368H90.9857Z" fill="#878C92"/>
<path d="M94.3868 23.066C95.7838 23.066 96.7298 22.219 96.9278 21.108H95.7398C95.5748 21.735 95.0468 22.098 94.3208 22.098C93.3858 22.098 92.7808 21.471 92.7478 20.514V20.437H96.9938C97.0158 20.283 97.0268 20.129 97.0268 19.986C96.9938 18.336 95.9048 17.302 94.2768 17.302C92.6158 17.302 91.5048 18.457 91.5048 20.195C91.5048 21.922 92.6158 23.066 94.3868 23.066ZM92.7918 19.568C92.8798 18.765 93.5288 18.259 94.2878 18.259C95.1128 18.259 95.6958 18.732 95.7948 19.568H92.7918Z" fill="#878C92"/>
<path d="M102.266 18.149C101.903 17.654 101.298 17.302 100.44 17.302C98.9113 17.302 97.7783 18.446 97.7783 20.184C97.7783 21.988 98.9113 23.066 100.44 23.066C101.331 23.066 101.914 22.648 102.277 22.153L102.42 23H103.454V15.3H102.266V18.149ZM100.638 22.065C99.6483 22.065 98.9993 21.295 98.9993 20.184C98.9993 19.084 99.6483 18.314 100.638 18.314C101.628 18.314 102.277 19.084 102.277 20.206C102.277 21.2951 101.628 22.065 100.638 22.065Z" fill="#878C92"/>
<path d="M110.444 17.302C109.575 17.302 108.992 17.698 108.618 18.204V15.3H107.43V23H108.464L108.607 22.186C108.959 22.692 109.564 23.066 110.444 23.066C111.984 23.066 113.106 21.911 113.106 20.184C113.106 18.369 111.984 17.302 110.444 17.302ZM110.246 22.065C109.256 22.065 108.607 21.284 108.607 20.173C108.607 19.084 109.256 18.314 110.246 18.314C111.236 18.314 111.896 19.084 111.896 20.184C111.896 21.295 111.236 22.065 110.246 22.065Z" fill="#878C92"/>
<path d="M115.428 23.033L115.208 23.583C115.032 24.045 114.922 24.155 114.46 24.155H113.624V25.2H114.9C115.725 25.2 115.967 24.793 116.319 23.88L118.871 17.368H117.606L116.077 21.647L114.504 17.368H113.239L115.428 23.033Z" fill="#878C92"/>
<path d="M60.98 44.0001H63.8V30.0001H60.98V44.0001Z" fill="#13191F"/>
<path d="M67.1851 32.6201C68.1051 32.6201 68.8251 31.9401 68.8251 31.0401C68.8251 30.1201 68.1051 29.4401 67.1851 29.4401C66.2651 29.4401 65.5451 30.1201 65.5451 31.0401C65.5451 31.9401 66.2651 32.6201 67.1851 32.6201ZM65.7651 44.0001H68.6051V33.7201H65.7651V44.0001Z" fill="#13191F"/>
<path d="M73.2503 44.0001H76.7503L80.4503 33.7201H77.4903L75.0503 41.1201L72.5703 33.7201H69.5503L73.2503 44.0001Z" fill="#13191F"/>
<path d="M85.9819 44.1201C88.7219 44.1201 90.5019 42.5201 90.8219 40.5201H88.0419C87.8019 41.4801 87.0019 41.9801 85.8619 41.9801C84.4419 41.9801 83.5019 41.1001 83.4419 39.6401V39.5001H90.9019C90.9619 39.1801 90.9819 38.8401 90.9819 38.5401C90.9419 35.5201 88.8619 33.6001 85.7819 33.6001C82.6019 33.6001 80.5019 35.6801 80.5019 38.8801C80.5019 42.0601 82.5619 44.1201 85.9819 44.1201ZM83.5019 37.6601C83.6619 36.4401 84.5819 35.7001 85.8019 35.7001C87.0819 35.7001 87.9419 36.4001 88.1419 37.6601H83.5019Z" fill="#13191F"/>
<path d="M98.443 33.6001C97.023 33.6001 96.0229 34.2001 95.3429 35.0201V30.0001H92.5229V44.0001H94.9829L95.263 42.6001C95.923 43.4801 96.943 44.1201 98.423 44.1201C101.203 44.1201 103.203 42.0201 103.203 38.8401C103.203 35.5801 101.203 33.6001 98.443 33.6001ZM97.803 41.8201C96.263 41.8201 95.3029 40.6001 95.3029 38.8401C95.3029 37.1001 96.263 35.9001 97.803 35.9001C99.343 35.9001 100.343 37.1001 100.343 38.8601C100.343 40.6201 99.343 41.8201 97.803 41.8201Z" fill="#13191F"/>
<path d="M104.769 44.0001H107.589V30.0001H104.769V44.0001Z" fill="#13191F"/>
<path d="M114.574 44.1201C117.854 44.1201 119.994 42.0401 119.994 38.8601C119.994 35.7001 117.854 33.6001 114.574 33.6001C111.294 33.6001 109.154 35.7001 109.154 38.8601C109.154 42.0201 111.294 44.1201 114.574 44.1201ZM114.574 41.8201C112.994 41.8201 112.034 40.6001 112.034 38.8601C112.034 37.1201 112.994 35.9001 114.574 35.9001C116.154 35.9001 117.134 37.1201 117.134 38.8601C117.134 40.6001 116.154 41.8201 114.574 41.8201Z" fill="#13191F"/>
<path d="M126.386 44.1201C129.186 44.1201 131.046 42.5801 131.446 40.1201H128.486C128.286 41.1601 127.546 41.8201 126.446 41.8201C124.966 41.8201 124.026 40.6201 124.026 38.8601C124.026 37.1201 124.966 35.9001 126.446 35.9001C127.546 35.9001 128.246 36.5401 128.486 37.5601H131.426C131.026 35.1201 129.286 33.6001 126.486 33.6001C123.226 33.6001 121.146 35.6801 121.146 38.8601C121.146 42.1001 123.126 44.1201 126.386 44.1201Z" fill="#13191F"/>
<path d="M132.933 44.0001H135.753V41.5001L137.293 39.8401L139.893 44.0001H143.153L139.253 37.7601L142.953 33.7201H139.773L135.753 38.0801V30.0001H132.933V44.0001Z" fill="#13191F"/>
<path d="M143.059 40.5801C143.179 42.7801 145.119 44.1201 147.979 44.1201C150.739 44.1201 152.659 42.8201 152.659 40.7801C152.659 38.4601 150.699 37.9201 148.339 37.6801C146.859 37.5001 145.979 37.4201 145.979 36.6401C145.979 35.9801 146.699 35.5801 147.799 35.5801C148.939 35.5801 149.719 36.0801 149.799 36.9001H152.499C152.359 34.8001 150.459 33.5801 147.699 33.5801C145.059 33.5601 143.279 34.9001 143.279 36.9401C143.279 39.0601 145.139 39.6001 147.539 39.8801C149.199 40.1001 149.899 40.1601 149.899 41.0001C149.899 41.7201 149.179 42.1001 147.999 42.1001C146.619 42.1001 145.839 41.4801 145.739 40.5801H143.059Z" fill="#13191F"/>
<rect x="12" y="12" width="36" height="36" rx="4" fill="url(#paint0_radial_1_43)"/>
<path fill-rule="evenodd" clip-rule="evenodd" d="M33.8047 24.24H20.55L24.3643 28.245V33.7757L33.8047 24.24ZM26.1761 35.6828H39.4308L35.6165 31.6778V26.1471L26.1761 35.6828Z" fill="white"/>
<path d="M8 1H158V-1H8V1ZM165 8V52H167V8H165ZM158 59H8V61H158V59ZM1 52V8H-1V52H1ZM8 59C4.13401 59 1 55.866 1 52H-1C-1 56.9706 3.02944 61 8 61V59ZM165 52C165 55.866 161.866 59 158 59V61C162.971 61 167 56.9706 167 52H165ZM158 1C161.866 1 165 4.13401 165 8H167C167 3.02944 162.971 -1 158 -1V1ZM8 -1C3.02944 -1 -1 3.02944 -1 8H1C1 4.13401 4.13401 1 8 1V-1Z" fill="#00173D" fill-opacity="0.14"/>
<defs>
<radialGradient id="paint0_radial_1_43" cx="0" cy="0" r="1" gradientUnits="userSpaceOnUse" gradientTransform="translate(6.73091 3) rotate(45.3703) scale(54.8013 47.7088)">
<stop stop-color="#FF0099"/>
<stop offset="1" stop-color="#FF7A00"/>
</radialGradient>
</defs>
</svg>
